<svg width="42" height="42" viewBox="0 0 42 42" fill="none" xmlns="http://www.w3.org/2000/svg">
    <path d="M41.9662 15.75C41.9662 15.7773 41.9677 15.8046 41.9707 15.8318C41.9767 15.8865 42.5085 21.2993 38.5357 24.1425C37.9095 24.5895 37.2383 24.97 36.5332 25.278C38.118 23.4083 39 20.6295 39 17.25C39.0398 14.4687 37.8583 11.8097 35.7675 9.975C41.8357 11.0422 41.9647 15.5392 41.9662 15.75ZM32.826 9.75525C35.6859 11.1576 37.4989 14.0648 37.5 17.25C37.5 21.939 35.6565 25.2668 32.5695 26.1518C32.5209 26.1707 32.4744 26.1945 32.4307 26.223C31.5173 26.2721 30.6013 26.2157 29.7007 26.055C26.4813 25.4366 23.6395 23.5642 21.801 20.85C22.2172 19.0718 24.7657 9.8745 32.826 9.75525ZM20.2005 20.8448C18.363 23.5614 15.5207 25.4359 12.3 26.055C11.3987 26.2159 10.4819 26.2726 9.56773 26.2238C9.52331 26.1933 9.47548 26.1681 9.42523 26.1488C6.34123 25.263 4.49998 21.936 4.49998 17.25C4.50103 14.0646 6.31442 11.1573 9.17473 9.75525C17.325 9.873 19.7917 19.0253 20.2005 20.8448ZM0.0292275 15.8333C0.0292275 15.8092 0.0337275 15.78 0.0337275 15.7582C0.0337275 15.5422 0.164228 11.0452 6.23248 9.9795C4.14287 11.8131 2.96152 14.4702 2.99998 17.25C2.99998 20.6303 3.88348 23.4098 5.46823 25.2803C4.76247 24.9723 4.09083 24.5915 3.46423 24.144C-0.508522 21.3 0.0232275 15.888 0.0292275 15.8333ZM39.75 32.2403C37.0352 32.2095 34.327 31.967 31.65 31.515C31.1047 31.4055 30.5752 31.2968 30.0562 31.1895C27.089 30.4685 24.0527 30.0697 21 30C17.9482 30.0699 14.9129 30.4688 11.9467 31.1895C11.4277 31.2968 10.8967 31.4055 10.353 31.515C7.67495 31.9671 4.96573 32.2096 2.24998 32.2403V29.25C2.21711 27.7378 2.07146 26.2301 1.81423 24.7395C2.06177 24.9614 2.32115 25.1697 2.59123 25.3635C4.8018 26.9263 7.44482 27.7605 10.152 27.75C10.963 27.7498 11.7723 27.6763 12.57 27.5303C15.9377 26.8884 18.9442 25.0118 21 22.2683C23.0558 25.0118 26.0623 26.8884 29.43 27.5303C30.2277 27.6763 31.037 27.7498 31.848 27.75C34.5551 27.7605 37.1981 26.9263 39.4087 25.3635C39.679 25.1697 39.9387 24.9614 40.1865 24.7395C39.9287 26.23 39.7828 27.7377 39.75 29.25V32.2403Z" fill="#E24C67"/>
</svg>
