<svg width="40" height="40" viewBox="0 0 40 40" fill="none" xmlns="http://www.w3.org/2000/svg">
    <path d="M33.7241 13.231V20.5846H40.0001C40.0001 16.813 37.232 13.7894 33.7241 13.231Z" fill="#E95670"/>
    <path d="M31.3802 21.7565V13.1379H28.7031V30.626C28.7039 27.9501 30.8812 25.7733 33.5573 25.7733C36.2338 25.7733 38.4114 27.9509 38.4114 30.6275H38.8281C39.4753 30.6275 40 30.1028 40 29.4556V22.9283H32.5521C31.9048 22.9284 31.3802 22.4037 31.3802 21.7565Z" fill="#E95670"/>
    <path d="M2.42711 25.6901H1.17188C0.524687 25.6901 0 26.2148 0 26.8619C0 27.5091 0.524687 28.0338 1.17188 28.0338H2.42711C3.0743 28.0338 3.59898 27.5091 3.59898 26.8619C3.59898 26.2148 3.0743 25.6901 2.42711 25.6901Z" fill="#E95670"/>
    <path d="M2.42711 15.6484H1.17188C0.524687 15.6484 0 16.1731 0 16.8203C0 17.4675 0.524687 17.9922 1.17188 17.9922H2.42711C3.0743 17.9922 3.59898 17.4675 3.59898 16.8203C3.59898 16.1731 3.0743 15.6484 2.42711 15.6484Z" fill="#E95670"/>
    <path d="M2.42711 20.6693H1.17188C0.524687 20.6693 0 21.194 0 21.8412C0 22.4884 0.524687 23.0131 1.17188 23.0131H2.42711C3.0743 23.0131 3.59898 22.4884 3.59898 21.8412C3.59898 21.194 3.0743 20.6693 2.42711 20.6693Z" fill="#E95670"/>
    <path d="M2.42711 10.6276H1.17188C0.524687 10.6276 0 11.1523 0 11.7994C0 12.4466 0.524687 12.9713 1.17188 12.9713H2.42711C3.0743 12.9713 3.59898 12.4466 3.59898 11.7994C3.59898 11.1523 3.0743 10.6276 2.42711 10.6276Z" fill="#E95670"/>
    <path d="M33.9506 33.1088C35.3191 32.8869 36.2486 31.5978 36.0268 30.2293C35.8049 28.8609 34.5157 27.9314 33.1473 28.1533C31.7788 28.3751 30.8493 29.6643 31.0711 31.0327C31.2929 32.4011 32.5821 33.3306 33.9506 33.1088Z" fill="#E95670"/>
    <path d="M25.1874 6.86194H7.44775C6.80057 6.86194 6.27588 7.38663 6.27588 8.03381V29.4557C6.27588 30.1029 6.80057 30.6276 7.44775 30.6276H8.95299C8.95299 27.951 11.1306 25.7734 13.8071 25.7734C16.4838 25.7734 18.6613 27.951 18.6613 30.6276H26.3592V8.03381C26.3592 7.38663 25.8345 6.86194 25.1874 6.86194Z" fill="#E95670"/>
    <path d="M14.2025 33.1052C15.571 32.8834 16.5006 31.5942 16.2787 30.2258C16.0569 28.8574 14.7677 27.9279 13.3992 28.1497C12.0308 28.3716 11.1012 29.6607 11.323 31.0291C11.5449 32.3976 12.8341 33.3271 14.2025 33.1052Z" fill="#E95670"/>
</svg>
