<svg width="36" height="36" viewBox="0 0 36 36" fill="none" xmlns="http://www.w3.org/2000/svg">
    <g clip-path="url(#clip0)">
        <path d="M12.9235 15.4314C15.2012 15.8762 17.5078 14.8645 17.5078 13.7813C17.5078 12.9515 16.0344 12.0234 14.0625 12.0234C12.2174 12.0234 10.6172 12.8896 10.6172 13.7813C10.6172 14.4659 11.6087 15.1753 12.9235 15.4314Z" fill="#E24C67"/>
        <path d="M24.0847 20.6016H28.0546V18.0569C26.9234 19.1268 25.4976 19.9629 24.0847 20.6016Z" fill="#E24C67"/>
        <path d="M3.18987 17.592C5.14364 18.7911 7.77333 19.7651 10.4045 20.2642C18.4461 21.7921 28.0547 17.759 28.0547 13.7812C28.0547 11.2957 26.5292 8.99824 23.7591 7.31201C21.1525 5.72541 17.7088 4.85156 14.0625 4.85156C6.55488 4.85156 0 8.62748 0 13.7812C0 15.0041 1.17823 16.3574 3.18987 17.592ZM8.55422 13.2699C8.90754 11.3261 11.2243 9.91406 14.0625 9.91406C17.1773 9.91406 19.6172 11.6127 19.6172 13.7812C19.6172 15.9498 17.1773 17.6484 14.0625 17.6484C13.5373 17.6484 13.0182 17.5991 12.5198 17.5018C10.1203 17.0345 8.50781 15.5392 8.50781 13.7812C8.50781 13.6098 8.52349 13.4377 8.55422 13.2699Z" fill="#E24C67"/>
        <path d="M14.0625 22.7109C12.6815 22.7109 11.3184 22.585 10.0111 22.3366C6.70008 21.7085 2.4833 20.1824 0 17.8882V24.4687C0 26.4788 1.43571 28.3302 3.91521 29.6818C5.31457 30.4443 6.86222 30.922 8.51527 31.1017C8.59493 31.1103 8.52968 31.1075 10.1954 31.1101V27.311C10.1954 26.7431 10.6318 26.2545 11.1991 26.2277C11.8047 26.1992 12.3047 26.6818 12.3047 27.2812V31.1133L15.8203 31.1188V27.311C15.8203 26.7431 16.2567 26.2545 16.824 26.2277C17.4297 26.1992 17.9297 26.6818 17.9297 27.2812V31.122L21.4453 31.1275V27.311C21.4453 26.7431 21.8817 26.2545 22.449 26.2277C23.0547 26.1992 23.5547 26.6818 23.5547 27.2812V31.1308L27.0703 31.1363V27.311C27.0703 26.7431 27.5067 26.2545 28.074 26.2277C28.6797 26.1992 29.1797 26.6818 29.1797 27.2812V31.1396L34.9437 31.1484C35.4955 31.1484 36 30.7163 36 30.0757V23.7656C36 23.1831 35.5278 22.7109 34.9453 22.7109H14.0625Z" fill="#E24C67"/>
    </g>
    <defs>
        <clipPath id="clip0">
            <rect width="36" height="36" fill="white"/>
        </clipPath>
    </defs>
</svg>
