<svg width="36" height="36" viewBox="0 0 36 36" fill="none" xmlns="http://www.w3.org/2000/svg">
    <g clip-path="url(#clip0)">
        <path d="M35.7998 17.1524L32.9766 13.5817L33.4104 9.05004C33.4318 8.76138 33.2647 8.49183 32.9966 8.38263L28.7653 6.65404L26.8698 2.51611C26.746 2.24839 26.461 2.09364 26.1691 2.13569L21.664 2.80309L17.9533 0.133461C17.716 -0.0444869 17.3896 -0.0444869 17.1524 0.133461L13.5817 3.02334L9.05003 2.58952C8.75971 2.56917 8.48958 2.73927 8.38263 3.00999L6.65404 7.23468L2.51611 9.13012C2.24839 9.25393 2.09364 9.53891 2.13569 9.8309L2.80309 14.3359L0.133461 18.0467C-0.0444869 18.284 -0.0444869 18.6103 0.133461 18.8476L2.9566 22.4182L2.52278 26.9499C2.50143 27.2386 2.66853 27.5081 2.93658 27.6173L7.23468 29.3459L9.13012 33.4839C9.25393 33.7516 9.53891 33.9063 9.8309 33.8643L14.3359 33.1969L18.0467 35.8665C18.284 36.0444 18.6103 36.0444 18.8476 35.8665L22.4182 33.0434L26.9499 33.4772C27.2386 33.4985 27.5081 33.3314 27.6173 33.0634L29.3459 28.7653L33.4838 26.8698C33.7516 26.746 33.9062 26.4611 33.8643 26.1691L33.1969 21.6641L35.8665 17.9533C36.0255 17.7013 35.9982 17.3745 35.7998 17.1524ZM27.8195 15.9489C27.809 16.0206 27.7756 16.0869 27.7241 16.1379L23.1057 20.6362L24.1935 26.9633C24.2231 27.1452 24.0994 27.3166 23.9176 27.3461C23.9007 27.3489 23.8836 27.3503 23.8665 27.3504C23.8129 27.3498 23.7601 27.3361 23.713 27.3103L18 24.3137L12.2936 27.3437C12.1316 27.4315 11.9291 27.3713 11.8412 27.2093C11.8049 27.1423 11.7927 27.0649 11.8064 26.99L12.8943 20.6362L8.27584 16.1379C8.14495 16.0082 8.14394 15.797 8.27367 15.666C8.32465 15.6145 8.39105 15.581 8.46272 15.5706L14.8431 14.6429L17.6996 8.86316C17.7957 8.69731 18.008 8.64066 18.1739 8.73677C18.2264 8.76714 18.2699 8.81077 18.3003 8.86316L21.1568 14.6429L27.5372 15.5706C27.7196 15.5971 27.846 15.7664 27.8195 15.9489Z" fill="#E24C67"/>
        <rect x="7.5791" y="7.57898" width="20.8421" height="21.7895" fill="#E24C67"/>
        <path d="M17.1358 10.9572C17.5216 10.295 18.4783 10.295 18.8641 10.9572L20.5346 13.8253C20.6759 14.0679 20.9126 14.2399 21.187 14.2993L24.431 15.0018C25.18 15.164 25.4757 16.0739 24.965 16.6454L22.7535 19.1205C22.5665 19.3298 22.476 19.6082 22.5043 19.8875L22.8386 23.1897C22.9158 23.9522 22.1418 24.5146 21.4405 24.2055L18.4032 22.8671C18.1463 22.7539 17.8536 22.7539 17.5967 22.8671L14.5594 24.2055C13.8581 24.5146 13.0841 23.9522 13.1613 23.1897L13.4956 19.8875C13.5239 19.6082 13.4334 19.3298 13.2464 19.1205L11.0349 16.6454C10.5242 16.0739 10.8199 15.164 11.5689 15.0018L14.8129 14.2993C15.0873 14.2399 15.324 14.0679 15.4653 13.8253L17.1358 10.9572Z" fill="white"/>
    </g>
    <defs>
        <clipPath id="clip0">
            <rect width="36" height="36" fill="white"/>
        </clipPath>
    </defs>
</svg>
