<svg width="38" height="38" viewBox="0 0 38 38" fill="none" xmlns="http://www.w3.org/2000/svg">
    <path d="M34.6697 12.5143C34.7388 12.0892 34.7761 11.6557 34.7761 11.2164C34.7761 9.08163 33.9446 7.07455 32.435 5.56498C30.9255 4.05542 28.9184 3.22393 26.7836 3.22393C26.3443 3.22393 25.9108 3.2612 25.4857 3.33031C24.0333 1.31526 21.668 0 19.0002 0C16.3302 0 13.9635 1.31743 12.5111 3.33465C12.0819 3.26481 11.6481 3.22972 11.2143 3.22972C9.16811 3.22972 7.12267 4.00729 5.56498 5.56498C4.05542 7.07455 3.22393 9.08163 3.22393 11.2164C3.22393 11.6557 3.2612 12.0892 3.33031 12.5143C1.31526 13.9667 0 16.332 0 19.0002C0 21.6701 1.31707 24.0365 3.33465 25.4889C2.93518 27.9421 3.67694 30.5473 5.56498 32.435C7.12303 33.9934 9.16992 34.7725 11.2168 34.7725C11.6499 34.7725 12.0827 34.7352 12.5114 34.6657C13.9635 36.6829 16.3302 38.0004 19.0002 38.0004C21.668 38.0004 24.0333 36.6847 25.4857 34.6701C25.9112 34.7392 26.3443 34.7761 26.7836 34.7761C28.9184 34.7761 30.9258 33.945 32.4354 32.4354C34.3231 30.5473 35.0652 27.9425 34.6657 25.4889C36.6829 24.0369 38 21.6701 38 19.0002C38 16.332 36.6847 13.9667 34.6697 12.5143ZM19.0002 31.0879C12.3349 31.0879 6.91245 25.6651 6.91245 19.0002C6.91245 12.3349 12.3349 6.91245 19.0002 6.91245C25.6651 6.91245 31.0876 12.3349 31.0876 19.0002C31.0876 25.6651 25.6651 31.0879 19.0002 31.0879Z" fill="#E24C67"/>
    <path d="M19.0001 9.69531C13.8693 9.69531 9.69482 13.8694 9.69482 19.0002C9.69482 24.131 13.8693 28.3051 19.0001 28.3051C24.1309 28.3051 28.305 24.131 28.305 19.0002C28.305 13.8694 24.1309 9.69531 19.0001 9.69531ZM20.7517 23.1743H17.937V16.949H16.506V14.8261H20.7517V23.1743Z" fill="#E24C67"/>
</svg>
