<svg width="24" height="24" viewBox="0 0 24 24" fill="none" xmlns="http://www.w3.org/2000/svg">
    <path d="M16.7076 7.29243C16.3175 6.90252 15.6853 6.90252 15.2953 7.29243L12.0063 10.5815L8.71724 7.29243C8.32533 6.91392 7.70238 6.91933 7.31711 7.3046C6.93184 7.68987 6.92643 8.31282 7.30494 8.70472L10.594 11.9937L7.30494 15.2828C7.0453 15.5335 6.94117 15.9049 7.03258 16.2541C7.12398 16.6033 7.3967 16.876 7.7459 16.9674C8.09511 17.0588 8.46646 16.9547 8.71724 16.6951L12.0063 13.406L15.2953 16.6951C15.6872 17.0736 16.3101 17.0682 16.6954 16.6829C17.0807 16.2976 17.0861 15.6747 16.7076 15.2828L13.4185 11.9937L16.7076 8.70472C17.0975 8.3147 17.0975 7.68246 16.7076 7.29243Z" fill="#B0B1BF"/>
</svg>
