<svg width="45" height="45" viewBox="0 0 45 45" fill="none" xmlns="http://www.w3.org/2000/svg">
    <g clip-path="url(#clip0)">
        <path d="M12.187 33.625H8.43701C7.91951 33.625 7.49951 33.205 7.49951 32.6875C7.49951 32.17 7.91951 31.75 8.43701 31.75H12.187C12.7045 31.75 13.1245 32.17 13.1245 32.6875C13.1245 33.205 12.7045 33.625 12.187 33.625Z" fill="#E95670"/>
        <path d="M42.6565 33.625H40.3128C39.7953 33.625 39.3753 33.205 39.3753 32.6875C39.3753 32.17 39.7953 31.75 40.3128 31.75H41.8784L43.1422 25.015C43.1253 21.5687 40.1815 18.625 36.5628 18.625H30.4072L27.424 31.75H32.8128C33.3303 31.75 33.7503 32.17 33.7503 32.6875C33.7503 33.205 33.3303 33.625 32.8128 33.625H26.2503C25.9653 33.625 25.6953 33.4956 25.5172 33.2725C25.339 33.0512 25.2715 32.7587 25.3353 32.4812L28.744 17.4813C28.8415 17.0519 29.2203 16.75 29.659 16.75H36.5628C41.2147 16.75 45.0003 20.5356 45.0003 25.1875L43.5772 32.86C43.4947 33.3044 43.1084 33.625 42.6565 33.625Z" fill="#E95670"/>
        <path d="M36.563 37.375C33.9792 37.375 31.8755 35.2731 31.8755 32.6875C31.8755 30.1019 33.9792 28 36.563 28C39.1467 28 41.2505 30.1019 41.2505 32.6875C41.2505 35.2731 39.1467 37.375 36.563 37.375ZM36.563 29.875C35.0124 29.875 33.7505 31.1369 33.7505 32.6875C33.7505 34.2381 35.0124 35.5 36.563 35.5C38.1136 35.5 39.3755 34.2381 39.3755 32.6875C39.3755 31.1369 38.1136 29.875 36.563 29.875Z" fill="#E95670"/>
        <path d="M15.9375 37.375C13.3538 37.375 11.25 35.2731 11.25 32.6875C11.25 30.1019 13.3538 28 15.9375 28C18.5213 28 20.625 30.1019 20.625 32.6875C20.625 35.2731 18.5213 37.375 15.9375 37.375ZM15.9375 29.875C14.3869 29.875 13.125 31.1369 13.125 32.6875C13.125 34.2381 14.3869 35.5 15.9375 35.5C17.4881 35.5 18.75 34.2381 18.75 32.6875C18.75 31.1369 17.4881 29.875 15.9375 29.875Z" fill="#E95670"/>
        <path d="M12.188 16.75H4.68799C4.17049 16.75 3.75049 16.33 3.75049 15.8125C3.75049 15.295 4.17049 14.875 4.68799 14.875H12.188C12.7055 14.875 13.1255 15.295 13.1255 15.8125C13.1255 16.33 12.7055 16.75 12.188 16.75Z" fill="#E95670"/>
        <path d="M12.187 22.375H2.81201C2.29451 22.375 1.87451 21.955 1.87451 21.4375C1.87451 20.92 2.29451 20.5 2.81201 20.5H12.187C12.7045 20.5 13.1245 20.92 13.1245 21.4375C13.1245 21.955 12.7045 22.375 12.187 22.375Z" fill="#E95670"/>
        <path d="M12.1875 28H0.9375C0.42 28 0 27.58 0 27.0625C0 26.545 0.42 26.125 0.9375 26.125H12.1875C12.705 26.125 13.125 26.545 13.125 27.0625C13.125 27.58 12.705 28 12.1875 28Z" fill="#E95670"/>
        <path d="M26.2495 33.625H19.687C19.1695 33.625 18.7495 33.205 18.7495 32.6875C18.7495 32.17 19.1695 31.75 19.687 31.75H25.5014L29.7614 13H8.43701C7.91951 13 7.49951 12.58 7.49951 12.0625C7.49951 11.545 7.91951 11.125 8.43701 11.125H30.937C31.222 11.125 31.492 11.2544 31.6701 11.4775C31.8483 11.6988 31.9158 11.9913 31.852 12.2688L27.1645 32.8938C27.067 33.3231 26.6864 33.625 26.2495 33.625Z" fill="#E95670"/>
    </g>
    <defs>
        <clipPath id="clip0">
            <rect width="45" height="45" fill="white"/>
        </clipPath>
    </defs>
</svg>
