<svg width="45" height="45" viewBox="0 0 45 45" fill="none" xmlns="http://www.w3.org/2000/svg">
    <path d="M31.1673 43C30.9923 43 30.8173 42.945 30.669 42.8333C30.2473 42.52 20.334 35.05 20.334 29.0517C20.334 25.715 23.0473 23 26.384 23C28.284 23 30.039 23.885 31.1673 25.3383C32.294 23.885 34.049 23 35.9507 23C39.2873 23 42.0007 25.715 42.0007 29.0517C42.0007 35.0517 32.0873 42.52 31.6657 42.835C31.5173 42.945 31.3423 43 31.1673 43ZM26.384 24.6667C23.9673 24.6667 22.0007 26.635 22.0007 29.0517C22.0007 33.1 28.2057 38.7983 31.1673 41.1167C34.1273 38.7967 40.334 33.0967 40.334 29.0517C40.334 26.635 38.3673 24.6667 35.9507 24.6667C34.2023 24.6667 32.6257 25.6983 31.9323 27.295C31.669 27.9033 30.6673 27.9033 30.404 27.295C29.709 25.6983 28.1323 24.6667 26.384 24.6667Z" fill="#E95670"/>
    <path d="M34.5005 21.335C34.0405 21.335 33.6671 20.9617 33.6671 20.5017V13.1L19.0505 20.4134C18.6388 20.6184 18.1388 20.4517 17.9321 20.04C17.7255 19.6284 17.8938 19.1284 18.3055 18.9234L34.1288 11.0067C34.3855 10.8767 34.6921 10.89 34.9388 11.0434C35.1838 11.195 35.3338 11.4634 35.3338 11.7517V20.5017C35.3338 20.9617 34.9605 21.335 34.5005 21.335Z" fill="#E95670"/>
    <path d="M17.8217 36.3344C17.685 36.3344 17.545 36.2994 17.4167 36.2294L2.42667 27.896C2.165 27.7494 2 27.471 2 27.1677V11.751C2 11.4627 2.15 11.1944 2.395 11.0427C2.64167 10.8894 2.95 10.8777 3.20667 11.006L19.03 18.9227C19.4417 19.1294 19.6083 19.6294 19.4033 20.041C19.1983 20.4527 18.6967 20.6194 18.285 20.4144L3.66667 13.0994V26.6777L18.2283 34.7727C18.63 34.996 18.775 35.5027 18.5517 35.906C18.3983 36.1794 18.115 36.3344 17.8217 36.3344Z" fill="#E95670"/>
    <path d="M34.5002 12.5825C34.3752 12.5825 34.2485 12.5542 34.1285 12.4942L18.6568 4.76417L3.20683 12.4942C2.79516 12.6975 2.2935 12.5342 2.0885 12.1225C1.8835 11.7108 2.0485 11.2092 2.46016 11.0042L18.2835 3.0875C18.5185 2.97083 18.7952 2.97083 19.0285 3.0875L34.8718 11.0042C35.2835 11.2108 35.4502 11.7108 35.2452 12.1225C35.1002 12.4142 34.8052 12.5825 34.5002 12.5825Z" fill="#E95670"/>
    <path d="M10.4044 22.5645C9.94438 22.5645 9.57104 22.1912 9.57104 21.7312V15.5345C9.57104 15.2195 9.74938 14.9312 10.031 14.7895L25.8544 6.87282C26.266 6.66782 26.766 6.83449 26.9727 7.24616C27.1794 7.65782 27.011 8.15782 26.5994 8.36449L11.2377 16.0512V21.7328C11.2377 22.1928 10.866 22.5645 10.4044 22.5645Z" fill="#E95670"/>
</svg>
