<svg width="24" height="20" viewBox="0 0 24 20" fill="none" xmlns="http://www.w3.org/2000/svg">
    <path d="M2.5 12L0 7L1 5.5L2 3L4.5 1H9.5L12 3L13.2462 1.5L16.5 0.5L21.5 2L23 5V8.5L19 14.5L13.2462 18.5H11L2.5 12Z" fill="white" fill-opacity="0.2"/>
    <path d="M17.1949 0.000464502C15.1929 -0.0102349 13.2896 0.869031 12 2.40044C10.7184 0.858565 8.80988 -0.023202 6.80503 0.000464502C3.0467 0.000464502 0 3.04717 0 6.80549C0 13.246 11.2405 19.5346 11.6962 19.7777C11.8801 19.9005 12.1199 19.9005 12.3038 19.7777C12.7595 19.5346 24 13.3372 24 6.80549C24 3.04717 20.9532 0.000464502 17.1949 0.000464502ZM12 18.5625C10.238 17.5296 1.21519 12.0308 1.21519 6.80549C1.21519 3.71832 3.71785 1.2156 6.80508 1.2156C8.69561 1.19077 10.4648 2.14435 11.4836 3.7371C11.6904 4.02232 12.0893 4.08588 12.3746 3.87898C12.4291 3.83944 12.477 3.79159 12.5164 3.7371C14.206 1.15326 17.6702 0.428264 20.2541 2.11777C21.8358 3.15207 22.7879 4.91554 22.7848 6.80543C22.7848 12.0916 13.762 17.5599 12 18.5625Z" fill="#E95670"/>
</svg>
