<svg width="22" height="22" viewBox="0 0 22 22" fill="none" xmlns="http://www.w3.org/2000/svg">
    <circle opacity="0.35" cx="11" cy="11" r="10" stroke="#B0B1BF" stroke-width="2"/>
    <mask id="path-2-inside-1" fill="white">
        <path d="M11 1.09703C11 0.491155 11.4924 -0.00566724 12.0952 0.0546565C13.5233 0.197557 14.9134 0.61897 16.1854 1.29887C17.7807 2.1516 19.1412 3.38463 20.1462 4.88873C21.1512 6.39282 21.7697 8.12156 21.947 9.92181C22.1243 11.7221 21.8549 13.5383 21.1627 15.2095C20.4704 16.8808 19.3767 18.3555 17.9783 19.5031C16.58 20.6507 14.9202 21.4357 13.146 21.7886C11.3718 22.1415 9.53794 22.0515 7.80687 21.5263C6.42668 21.1077 5.14579 20.4227 4.03492 19.514C3.56598 19.1303 3.56913 18.4309 3.99754 18.0025C4.42596 17.574 5.1169 17.5803 5.59523 17.9522C6.44403 18.6121 7.40904 19.1129 8.44377 19.4268C9.82956 19.8471 11.2976 19.9193 12.718 19.6367C14.1383 19.3542 15.467 18.7258 16.5864 17.8071C17.7059 16.8884 18.5815 15.7078 19.1356 14.3699C19.6898 13.032 19.9055 11.578 19.7635 10.1369C19.6216 8.69569 19.1264 7.31177 18.3219 6.10768C17.5173 4.90359 16.4282 3.9165 15.1511 3.23385C14.1975 2.72413 13.161 2.39589 12.0942 2.26229C11.493 2.18701 11 1.7029 11 1.09703Z"/>
    </mask>
    <path d="M11 1.09703C11 0.491155 11.4924 -0.00566724 12.0952 0.0546565C13.5233 0.197557 14.9134 0.61897 16.1854 1.29887C17.7807 2.1516 19.1412 3.38463 20.1462 4.88873C21.1512 6.39282 21.7697 8.12156 21.947 9.92181C22.1243 11.7221 21.8549 13.5383 21.1627 15.2095C20.4704 16.8808 19.3767 18.3555 17.9783 19.5031C16.58 20.6507 14.9202 21.4357 13.146 21.7886C11.3718 22.1415 9.53794 22.0515 7.80687 21.5263C6.42668 21.1077 5.14579 20.4227 4.03492 19.514C3.56598 19.1303 3.56913 18.4309 3.99754 18.0025C4.42596 17.574 5.1169 17.5803 5.59523 17.9522C6.44403 18.6121 7.40904 19.1129 8.44377 19.4268C9.82956 19.8471 11.2976 19.9193 12.718 19.6367C14.1383 19.3542 15.467 18.7258 16.5864 17.8071C17.7059 16.8884 18.5815 15.7078 19.1356 14.3699C19.6898 13.032 19.9055 11.578 19.7635 10.1369C19.6216 8.69569 19.1264 7.31177 18.3219 6.10768C17.5173 4.90359 16.4282 3.9165 15.1511 3.23385C14.1975 2.72413 13.161 2.39589 12.0942 2.26229C11.493 2.18701 11 1.7029 11 1.09703Z"
          stroke="#E95670" stroke-width="4" mask="url(#path-2-inside-1)"/>
</svg>
