<svg xmlns="http://www.w3.org/2000/svg" viewBox="0 0 841.76 162.87">
  <g>
    <path d="M46.31,163.2V139H48q77.55,0,155.11,0c10.27,0,18.32-4.31,23.87-12.92A27.33,27.33,0,0,0,225.67,95a2.88,2.88,0,0,0-2.59-1.28q-87.35,0-174.67,0h-2V69.8c.59,0,1.21-.08,1.83-.08q87.09,0,174.19,0a4,4,0,0,0,3.71-1.94c9.09-12.93,5.52-31.64-7.64-39.7a25.33,25.33,0,0,0-13.46-3.7H46.41V.4c.44,0,.87-.06,1.3-.06q78.63,0,157.27,0a51.3,51.3,0,0,1,50.57,40.18c3.29,14.37.63,27.81-7.45,40.15a1.65,1.65,0,0,0,0,2.19,50.6,50.6,0,0,1,8.53,33.54,51.46,51.46,0,0,1-42.23,45.82c-2,.36-4,.48-6.06.73-.51.06-1,.16-1.52.24Z" transform="translate(0 -0.33)" style="fill: #be3a3f"/>
    <path d="M0,77.88c.24-1.81.4-3.63.73-5.43C4.17,53.35,15.3,41.19,34,36a55.26,55.26,0,0,1,14.93-1.92H208.85c0,.53.06.92.06,1.31,0,7.11,0,14.22,0,21.33,0,1.11-.31,1.41-1.4,1.41-11.35,0-22.71,0-34.07,0H51.24A31.22,31.22,0,0,0,38.81,60.2a22.65,22.65,0,0,0-13.49,24c1.46,10.68,8,18.15,18.25,20.43a36.83,36.83,0,0,0,7.85.72q77.75.06,155.47,0c2.44,0,2-.16,2,2,0,6.83,0,13.66,0,20.49v1.42c-.51,0-.94.07-1.36.07q-78.81,0-157.63,0c-10.7,0-20.68-2.49-29.49-8.72C9.77,113.14,3.56,102.7,1,90c-.39-2-.52-4-.78-6,0-.35-.16-.69-.24-1Z" transform="translate(0 -0.33)" style="fill: #be3a3f"/>
  </g>
  <g>
    <path d="M323.57,125.42V36.56c.44,0,.87-.06,1.29-.06,11.31,0,22.63,0,33.94,0a82.63,82.63,0,0,1,19.62,2c11.36,2.79,16.22,13.47,15.22,23C392.85,69,389,74.33,382.27,77.65l-.88.49c1,.36,1.79.63,2.58.94,6.82,2.63,11.89,7,13.42,14.41,2.21,10.63-.35,19.78-9.17,26.7a21.8,21.8,0,0,1-12.71,4.39c-7.26.39-14.53.71-21.8.81-9.55.13-19.11,0-28.66,0Zm18-15a3.71,3.71,0,0,0,.54.08c6.76,0,13.52.11,20.27-.11A68.08,68.08,0,0,0,372.77,109c3.82-.72,5.88-3.33,6.49-7.08a19.29,19.29,0,0,0,.25-3.94c-.25-5.63-2.74-8.71-8.19-10a33.94,33.94,0,0,0-6.62-1c-7.47-.21-14.95-.24-22.42-.34a5.82,5.82,0,0,0-.75.09Zm0-38.32c7.5-.18,14.89-.27,22.27-.59a37.13,37.13,0,0,0,7.29-1.28,6,6,0,0,0,4.58-4.77,20.33,20.33,0,0,0,.36-6.27c-.47-4-2.37-5.87-6.36-6.7-.9-.18-1.8-.35-2.71-.46-8.29-1-16.61-.65-24.92-.71a3.06,3.06,0,0,0-.51.09Z" transform="translate(0 -0.33)"/>
    <path d="M795.86,36.49V68.41c.74-.72,1.33-1.28,1.89-1.85,9.72-9.86,24.51-8.07,32.07-2.46a27.34,27.34,0,0,1,10.24,15.76c3.12,12.37,2.1,24.31-4.36,35.53-4.93,8.58-12.67,11.88-22.25,11.49-7.25-.3-13-3.63-17.47-9.17l-1.3-1.61v9.24H778.74V123.9q0-43,0-85.92c0-1.21.3-1.54,1.52-1.52,4.72.08,9.44,0,14.16,0Zm28.35,56.69A34.26,34.26,0,0,0,822.29,81a12.33,12.33,0,0,0-6.1-7.08,13.52,13.52,0,0,0-19.35,8.49,36.93,36.93,0,0,0-1.08,12.82,29.2,29.2,0,0,0,2.29,10.46c2.56,5.59,7.14,8.13,14,7.74,5.22-.31,9-3.45,10.77-9.09A36.6,36.6,0,0,0,824.21,93.18Z" transform="translate(0 -0.33)"/>
    <path d="M471.33,125.34H455.51v-9.42c-.41.49-.61.71-.79,1-5.49,7.4-13,10.38-22,10A23.19,23.19,0,0,1,424,125c-5.59-2.51-8.65-7.09-10-12.84a42.43,42.43,0,0,1-1.18-9.11c-.13-13.74-.06-27.48-.06-41.21,0-.2,0-.39,0-.68h17V62.6c0,9.79-.12,19.57.05,29.36A106.89,106.89,0,0,0,431,106.25c.84,5.38,3.86,7.64,9.32,7.63a22.48,22.48,0,0,0,4.41-.41,9.58,9.58,0,0,0,7.82-7.21,47.71,47.71,0,0,0,1.64-12.79c.11-10.26.08-20.53.11-30.79V61.17h17Z" transform="translate(0 -0.33)"/>
    <path d="M761.74,61.14v64.19H745.93V116c-.41.44-.63.63-.79.85-5.47,7.42-13,10.48-22,10.06a28.56,28.56,0,0,1-6.94-1.17c-6.72-2.09-10.41-7.07-11.89-13.67a49.68,49.68,0,0,1-1.17-10.31c-.13-13.14-.06-26.28,0-39.43,0-.35,0-.7,0-1.12h17v1.39c0,9.74-.12,19.49.06,29.23a107,107,0,0,0,1.16,14.3c.84,5.56,3.9,7.86,9.54,7.8a21.58,21.58,0,0,0,4.17-.39,9.65,9.65,0,0,0,7.89-7.3,44.67,44.67,0,0,0,1.59-11.71c.12-10.58.12-21.16.17-31.75V61.14Z" transform="translate(0 -0.33)"/>
    <path d="M541.07,76.57l-15.88,2.94c-.07-.08-.19-.15-.22-.25-1.45-4.69-4.92-6.81-9.54-7.28a26.76,26.76,0,0,0-9.76.66c-1.65.45-3.19,1.12-4,2.79a2.79,2.79,0,0,0,.74,3.77,17.26,17.26,0,0,0,3.64,2.25c4.72,2.12,9.81,3,14.78,4.37a124.41,124.41,0,0,1,12.07,3.84c14.61,5.49,12.35,24.86,3.06,31a36.43,36.43,0,0,1-17,6,46.5,46.5,0,0,1-20.11-2c-8-2.82-13.13-8.38-15.51-16.49-.05-.19-.11-.39-.14-.58a4.21,4.21,0,0,1,0-.52l16.89-2.58c.2.64.37,1.2.56,1.76a11.05,11.05,0,0,0,8.14,7.7,23.37,23.37,0,0,0,12.66-.36A6,6,0,0,0,526,109.2c.58-2.29,0-4.1-2.06-5.23a20,20,0,0,0-4.89-1.85c-7.34-1.75-14.69-3.46-21.7-6.31-3.49-1.41-6.65-3.24-8.87-6.45a18.33,18.33,0,0,1,8.89-27.53c5.54-2,11.3-2.34,17.13-2.21a37.84,37.84,0,0,1,14,2.69,20.8,20.8,0,0,1,12.18,13.06C540.86,75.73,540.94,76.11,541.07,76.57Z" transform="translate(0 -0.33)"/>
    <path d="M655.76,80.11l-16.51,2.94c-.11-.39-.22-.68-.29-1-1.39-6.16-5.44-9.29-11.79-9.12-6.66.18-10.9,3.41-12.58,10a37.92,37.92,0,0,0,.44,20.46c1.45,4.88,4.47,8.3,9.76,9.29,6.68,1.25,11.69-1.49,14.07-7.82.49-1.3.81-2.66,1.26-4.14l16.93,2.89c-1,2.72-1.75,5.37-2.89,7.84-4.16,9-11.49,13.72-21.16,15a37.08,37.08,0,0,1-18-1.5c-9.19-3.36-14.89-10.12-17.4-19.34-3.27-12.09-2.29-23.8,4.64-34.62,4-6.3,10-9.63,17.21-10.83a40.13,40.13,0,0,1,19.67,1.14c8.91,3,14,9.53,16.62,18.25A2.62,2.62,0,0,1,655.76,80.11Z" transform="translate(0 -0.33)"/>
    <path d="M559.07,74.57h-7.72V61.1h7.72V59c0-3.27,0-6.55,0-9.82a1.76,1.76,0,0,1,.67-1.31c5.26-3.1,10.56-6.14,15.85-9.2.17-.09.35-.15.69-.29V61h11.48V74.57h-11.4c0,.44-.08.75-.08,1.06,0,9.42,0,18.85.05,28.28a37.1,37.1,0,0,0,.47,5.24c.43,2.75,2.18,4.06,4.93,3.59,2-.34,4-.92,6-1.42.24,2,.49,4.07.73,6.14s.43,4,.69,6c.09.65,0,1-.7,1.25a33.76,33.76,0,0,1-20,1.38,9.88,9.88,0,0,1-7.54-7.12A50.52,50.52,0,0,1,559.1,104c-.07-9.27,0-18.54,0-27.8Z" transform="translate(0 -0.33)"/>
    <path d="M669,125.35V36.56h16.88v88.79Z" transform="translate(0 -0.33)"/>
    <path d="M341.53,110.39V86.79a5.82,5.82,0,0,1,.75-.09c7.47.1,15,.13,22.42.34a33.94,33.94,0,0,1,6.62,1c5.45,1.28,7.94,4.36,8.19,10a19.29,19.29,0,0,1-.25,3.94c-.61,3.75-2.67,6.36-6.49,7.08a68.08,68.08,0,0,1-10.43,1.32c-6.75.22-13.51.09-20.27.11A3.71,3.71,0,0,1,341.53,110.39Z" transform="translate(0 -0.33)" style="fill: #fff"/>
    <path d="M341.53,72.07V51.38a3.06,3.06,0,0,1,.51-.09c8.31.06,16.63-.28,24.92.71.91.11,1.81.28,2.71.46,4,.83,5.89,2.65,6.36,6.7a20.33,20.33,0,0,1-.36,6.27,6,6,0,0,1-4.58,4.77,37.13,37.13,0,0,1-7.29,1.28C356.42,71.8,349,71.89,341.53,72.07Z" transform="translate(0 -0.33)" style="fill: #fff"/>
    <path d="M824.21,93.18a36.6,36.6,0,0,1-1.44,11.11c-1.82,5.64-5.55,8.78-10.77,9.09-6.81.39-11.39-2.15-14-7.74a29.2,29.2,0,0,1-2.29-10.46,36.93,36.93,0,0,1,1.08-12.82,13.52,13.52,0,0,1,19.35-8.49,12.33,12.33,0,0,1,6.1,7.08A34.26,34.26,0,0,1,824.21,93.18Z" transform="translate(0 -0.33)" style="fill: #fff"/>
  </g>
</svg>
