<svg width="45" height="45" viewBox="0 0 45 45" fill="none" xmlns="http://www.w3.org/2000/svg">
    <path d="M37.8334 9H6.16664C3.87 9 2 10.9098 2 13.2554V31.9788C2 34.3243 3.87 36.2341 6.16664 36.2341H37.8333C40.1299 36.2341 41.9999 34.3243 41.9999 31.9788V13.2554C42 10.9098 40.13 9 37.8334 9ZM40.3334 31.9787C40.3334 33.3864 39.2117 34.5319 37.8334 34.5319H6.16664C4.78828 34.5319 3.66664 33.3864 3.66664 31.9787V13.2554C3.66664 11.8477 4.78828 10.7022 6.16664 10.7022H37.8333C39.2116 10.7022 40.3333 11.8477 40.3333 13.2554V31.9787H40.3334Z" fill="#E95670"/>
    <path d="M41.1666 14.1055H2.83336C2.37336 14.1055 2 14.4868 2 14.9566V20.0629C2 20.5327 2.37336 20.914 2.83336 20.914H41.1667C41.6267 20.914 42.0001 20.5327 42.0001 20.0629V14.9566C42 14.4868 41.6266 14.1055 41.1666 14.1055ZM40.3334 19.2119H3.66664V15.8076H40.3333V19.2119H40.3334Z" fill="#E95670"/>
    <path d="M17.8334 26.0195H7.83336C7.37336 26.0195 7 26.4008 7 26.8706C7 27.3404 7.37336 27.7216 7.83336 27.7216H17.8334C18.2934 27.7216 18.6667 27.3403 18.6667 26.8705C18.6667 26.4008 18.2934 26.0195 17.8334 26.0195Z" fill="#E95670"/>
    <path d="M17.8334 29.4258H7.83336C7.37336 29.4258 7 29.8071 7 30.2769C7 30.7467 7.37336 31.128 7.83336 31.128H17.8334C18.2934 31.128 18.6667 30.7467 18.6667 30.2769C18.6666 29.8071 18.2934 29.4258 17.8334 29.4258Z" fill="#E95670"/>
    <path d="M34.4987 24.3203H32.832C31.4537 24.3203 30.332 25.4658 30.332 26.8735V28.5756C30.332 29.9833 31.4537 31.1288 32.832 31.1288H34.4987C35.877 31.1288 36.9987 29.9833 36.9987 28.5756V26.8735C36.9987 25.4659 35.877 24.3203 34.4987 24.3203ZM35.332 28.5757C35.332 29.0455 34.9587 29.4268 34.4987 29.4268H32.832C32.372 29.4268 31.9987 29.0455 31.9987 28.5757V26.8736C31.9987 26.4038 32.372 26.0225 32.832 26.0225H34.4987C34.9587 26.0225 35.332 26.4038 35.332 26.8736V28.5757Z" fill="#E95670"/>
</svg>
