<svg width="45" height="45" viewBox="0 0 45 45" fill="none" xmlns="http://www.w3.org/2000/svg">
    <path d="M40.2722 21.1594V15.8185C40.2722 14.0075 38.8675 12.5347 37.0927 12.3919L32.1328 3.72867C31.6731 2.92744 30.9309 2.35478 30.0428 2.11699C29.1589 1.88081 28.2346 2.00485 27.4435 2.4653L10.4407 12.364H7.45452C5.54934 12.364 4 13.9133 4 15.8185V36.5455C4 38.4507 5.54926 40 7.45452 40H36.8177C38.7229 40 40.2722 38.4507 40.2722 36.5455V31.2047C41.2753 30.847 41.9994 29.8973 41.9994 28.7729V23.5911C41.9994 22.4667 41.2753 21.5171 40.2722 21.1594ZM35.0856 12.364H27.5583L33.2038 9.07719L35.0856 12.364ZM32.3457 7.57829L24.1254 12.364H20.7158L31.4931 6.08927L32.3457 7.57829ZM28.313 3.95804C28.7035 3.72948 29.1597 3.66876 29.5958 3.78518C30.0369 3.90323 30.4047 4.18831 30.6332 4.58722L30.635 4.59038L17.2831 12.364H13.8736L28.313 3.95804ZM38.5449 36.5455C38.5449 37.4976 37.7698 38.2727 36.8177 38.2727H7.45452C6.50237 38.2727 5.7273 37.4976 5.7273 36.5455V15.8185C5.7273 14.8664 6.50237 14.0913 7.45452 14.0913H36.8177C37.7698 14.0913 38.5449 14.8664 38.5449 15.8185V21.0003H33.3632C30.5058 21.0003 28.1815 23.3246 28.1815 26.182C28.1815 29.0394 30.5058 31.3637 33.3632 31.3637H38.5449V36.5455ZM40.2722 28.7729C40.2722 29.2494 39.8851 29.6365 39.4086 29.6365H33.3632C31.458 29.6365 29.9087 28.0873 29.9087 26.182C29.9087 24.2768 31.4579 22.7275 33.3632 22.7275H39.4086C39.885 22.7275 40.2722 23.1146 40.2722 23.5911V28.7729Z" fill="#E95670"/>
    <path d="M33.3639 24.457C32.4118 24.457 31.6367 25.2321 31.6367 26.1842C31.6367 27.1364 32.4118 27.9115 33.3639 27.9115C34.3161 27.9115 35.0912 27.1364 35.0912 26.1842C35.0912 25.2321 34.3162 24.457 33.3639 24.457Z" fill="#E95670"/>
</svg>
