<svg width="108" height="114" viewBox="0 0 108 114" fill="none" xmlns="http://www.w3.org/2000/svg">
    <g filter="url(#filter0_d)">
        <path d="M74.6938 56.4472C72.7665 62.0371 71.4322 69.3626 71.8334 74.5167H36.1651C36.5663 69.3627 35.232 62.0372 33.3047 56.4472C35.5895 58.0605 38.3192 58.9239 41.1709 58.9152C44.7377 58.9064 48.1825 57.5024 50.7289 54.9995C52.2028 53.5518 53.3103 51.8252 53.9993 49.9414C54.6882 51.8252 55.7957 53.5518 57.2696 54.9995C59.8161 57.5024 63.2609 58.9064 66.8276 58.9152C69.6793 58.9152 72.4002 58.0517 74.6938 56.4472Z" fill="#E95670"/>
    </g>
    <rect x="36.6089" y="45.0869" width="7.6087" height="7.6087" fill="#E95670"/>
    <rect x="64.8696" y="44" width="7.6087" height="7.6087" fill="#E95670"/>
    <g filter="url(#filter1_d)">
        <path d="M32.3537 32.0551L31.5513 34.8371L30.9845 36.7905L29.9205 40.4882C29.4496 41.7701 29.188 43.1567 29.188 44.6044C29.188 47.3864 30.1386 49.9416 31.7258 51.9735C33.9845 54.8514 37.5338 56.674 41.5105 56.552C47.842 56.3602 52.6907 51.1799 52.8128 44.8486C52.839 43.4794 55.1413 43.4794 55.1675 44.8486C55.2895 51.1799 60.1384 56.3601 66.4697 56.552C70.4377 56.674 73.9958 54.8602 76.2545 51.9735C77.8504 49.9416 78.7922 47.3864 78.7922 44.6044C78.7922 43.1567 78.5306 41.7701 78.0598 40.4882L77.0133 36.7905L76.4464 34.8371L75.6441 32.0551C74.9115 29.5173 73.0366 27.5377 70.6732 26.622C70.6732 26.622 70.6732 26.622 70.6644 26.622C70.6383 26.6133 70.6121 26.6046 70.586 26.5959C69.9667 26.3691 66.0859 24.9476 63.2691 24.311C61.3593 23.875 60.1557 21.9389 59.5104 20.5261C59.1006 19.593 58.1674 19 57.147 19H53.9988H50.8506C49.8302 19 48.8971 19.593 48.4697 20.5261C47.8244 21.9389 46.621 23.875 44.711 24.311C41.8942 24.9476 38.0134 26.3691 37.3942 26.5959C37.3681 26.6046 37.3419 26.6133 37.3157 26.622C37.307 26.622 37.307 26.622 37.307 26.622C34.9612 27.5377 33.0862 29.5173 32.3537 32.0551ZM68.2487 46.9329C69.4784 46.9329 70.4813 47.9358 70.4813 49.1655C70.4813 50.3951 69.4784 51.398 68.2487 51.398C67.019 51.3979 66.0161 50.395 66.0161 49.1654C66.0161 47.9358 67.0104 46.9329 68.2487 46.9329ZM39.6008 46.9329C40.8304 46.9329 41.8333 47.9358 41.8333 49.1655C41.8333 50.3951 40.8304 51.398 39.6008 51.398C38.371 51.3979 37.3681 50.395 37.3681 49.1654C37.3681 47.9358 38.371 46.9329 39.6008 46.9329Z" fill="#E95670"/>
    </g>
    <g clip-path="url(#clip0)">
        <path d="M29.8162 41.3928C34.1912 42.1839 44.3563 42.0946 51.3662 50.4999C50 53.3964 45.6724 57.1964 40.6072 57.1964C33.7733 57.1964 29.0001 52.6294 29.0001 46.0901C28.9941 44.4886 29.2703 42.8985 29.8162 41.3928ZM33.759 35.7678C37.3099 36.8526 40.1965 37.4562 42.7903 39.1857C46.4888 41.8124 50.0773 44.8912 52 48.9999C45 40.4999 34.8394 40.533 30.5626 39.7169C31.3556 38.2016 32.4422 36.8592 33.759 35.7678Z" fill="#C5445B"/>
        <path d="M37.5 26.5001C35 29.5 34.3455 31.8027 34.3367 34.7977L34.3377 34.7994C35.1171 35.0267 35.8806 35.3052 36.6233 35.6332C36.2287 31.0048 37 29.5 37.5 26.5001Z" fill="#C5445B"/>
    </g>
    <g clip-path="url(#clip1)">
        <path d="M78.1838 41.3928C73.8088 42.1839 63.6437 42.0946 56.6338 50.4999C58 53.3964 62.3276 57.1964 67.3928 57.1964C74.2267 57.1964 78.9999 52.6294 78.9999 46.0901C79.0059 44.4886 78.7297 42.8985 78.1838 41.3928ZM74.241 35.7678C70.6901 36.8526 67.8035 37.4562 65.2097 39.1857C61.5112 41.8124 57.9227 44.8912 56 48.9999C63 40.4999 73.1606 40.533 77.4374 39.7169C76.6444 38.2016 75.5578 36.8592 74.241 35.7678Z" fill="#C5445B"/>
        <path d="M70.5 26.5001C73 29.5 73.6545 31.8027 73.6633 34.7977L73.6623 34.7994C72.8829 35.0267 72.1194 35.3052 71.3767 35.6332C71.7713 31.0048 71 29.5 70.5 26.5001Z" fill="#C5445B"/>
    </g>
    <g filter="url(#filter2_d)">
        <path d="M33.5 48.5L43.425 54.4014L43.5733 42.8554L33.5 48.5ZM75.5 37.5C78.0835 37.5 80.6458 38.2282 82.1924 39.2437C82.9733 39.7565 83.3756 40.2625 83.5053 40.6667C83.6081 40.9869 83.59 41.3886 83.1066 41.9332C82.5847 42.5213 81.5622 43.2092 79.7851 43.8952C78.0249 44.5747 75.6031 45.2226 72.3719 45.7813C65.9102 46.8985 56.312 47.6417 42.5088 47.6157L42.505 49.6157C56.3659 49.6418 66.0916 48.8968 72.7127 47.752C76.0229 47.1797 78.5823 46.5034 80.5053 45.761C82.4115 45.0252 83.7745 44.1937 84.6024 43.2608C85.469 42.2844 85.7654 41.1635 85.4096 40.0553C85.0808 39.0312 84.2514 38.2031 83.2901 37.5718C81.3521 36.2993 78.3872 35.5 75.5 35.5V37.5Z" fill="white"/>
    </g>
    <defs>
        <filter id="filter0_d" x="4.30469" y="30.9414" width="99.3891" height="82.5753" filterUnits="userSpaceOnUse" color-interpolation-filters="sRGB">
            <feFlood flood-opacity="0" result="BackgroundImageFix"/>
            <feColorMatrix in="SourceAlpha" type="matrix" values="0 0 0 0 0 0 0 0 0 0 0 0 0 0 0 0 0 0 127 0" result="hardAlpha"/>
            <feOffset dy="10"/>
            <feGaussianBlur stdDeviation="14.5"/>
            <feColorMatrix type="matrix" values="0 0 0 0 0.952941 0 0 0 0 0.235294 0 0 0 0 0.364706 0 0 0 0.35 0"/>
            <feBlend mode="normal" in2="BackgroundImageFix" result="effect1_dropShadow"/>
            <feBlend mode="normal" in="SourceGraphic" in2="effect1_dropShadow" result="shape"/>
        </filter>
        <filter id="filter1_d" x="0.187988" y="0" width="107.604" height="95.5578" filterUnits="userSpaceOnUse" color-interpolation-filters="sRGB">
            <feFlood flood-opacity="0" result="BackgroundImageFix"/>
            <feColorMatrix in="SourceAlpha" type="matrix" values="0 0 0 0 0 0 0 0 0 0 0 0 0 0 0 0 0 0 127 0" result="hardAlpha"/>
            <feOffset dy="10"/>
            <feGaussianBlur stdDeviation="14.5"/>
            <feColorMatrix type="matrix" values="0 0 0 0 0.952941 0 0 0 0 0.235294 0 0 0 0 0.364706 0 0 0 0.35 0"/>
            <feBlend mode="normal" in2="BackgroundImageFix" result="effect1_dropShadow"/>
            <feBlend mode="normal" in="SourceGraphic" in2="effect1_dropShadow" result="shape"/>
        </filter>
        <filter id="filter2_d" x="26.5" y="33.5" width="66.0569" height="32.9014" filterUnits="userSpaceOnUse" color-interpolation-filters="sRGB">
            <feFlood flood-opacity="0" result="BackgroundImageFix"/>
            <feColorMatrix in="SourceAlpha" type="matrix" values="0 0 0 0 0 0 0 0 0 0 0 0 0 0 0 0 0 0 127 0" result="hardAlpha"/>
            <feOffset dy="5"/>
            <feGaussianBlur stdDeviation="3.5"/>
            <feColorMatrix type="matrix" values="0 0 0 0 0 0 0 0 0 0 0 0 0 0 0 0 0 0 0.25 0"/>
            <feBlend mode="normal" in2="BackgroundImageFix" result="effect1_dropShadow"/>
            <feBlend mode="normal" in="SourceGraphic" in2="effect1_dropShadow" result="shape"/>
        </filter>
        <clipPath id="clip0">
            <rect width="25" height="30" fill="white" transform="translate(29 27)"/>
        </clipPath>
        <clipPath id="clip1">
            <rect width="25" height="30" fill="white" transform="matrix(-1 0 0 1 79 27)"/>
        </clipPath>
    </defs>
</svg>
