<svg xmlns="http://www.w3.org/2000/svg" display="none">
    <symbol id="mail" viewBox="0 0 24 24">
        <path d="M20.5458 4H3.45416C2.37491 4 1.5 4.87491 1.5 5.95416C1.5 6.60754 1.82654 7.2177 2.37019 7.58013L10.225 12.8166C10.8665 13.2443 11.1872 13.4582 11.5339 13.5412C11.8403 13.6147 12.1597 13.6147 12.4661 13.5412C12.8128 13.4582 13.1335 13.2443 13.775 12.8166L13.775 12.8166L21.6298 7.58013C22.1735 7.2177 22.5 6.60754 22.5 5.95416C22.5 4.87491 21.6251 4 20.5458 4Z"/>
        <path d="M4.7 20H19.3C20.4201 20 20.9802 20 21.408 19.782C21.7843 19.5903 22.0903 19.2843 22.282 18.908C22.5 18.4802 22.5 17.9201 22.5 16.8V8.5L14.6626 13.725C13.7003 14.3665 13.2192 14.6872 12.6991 14.8119C12.2395 14.922 11.7605 14.922 11.3009 14.8119C10.7808 14.6872 10.2997 14.3665 9.33744 13.725L1.5 8.5V16.8C1.5 17.9201 1.5 18.4802 1.71799 18.908C1.90973 19.2843 2.21569 19.5903 2.59202 19.782C3.01984 20 3.5799 20 4.7 20Z"/>
    </symbol>

    <symbol id="heart" viewBox="0 0 24 24">
        <path d="M17.8008 3C15.8876 3 14.2104 3.85311 12.9505 5.46715C12.7825 5.68242 12.6327 5.89778 12.5 6.10635C12.3673 5.89773 12.2175 5.68242 12.0495 5.46715C10.7896 3.85311 9.11244 3 7.19922 3C3.58498 3 1 6.02625 1 9.6576C1 13.8099 4.40315 17.7232 12.0345 22.3462C12.1776 22.4329 12.3388 22.4762 12.5 22.4762C12.6612 22.4762 12.8224 22.4329 12.9655 22.3463C20.5969 17.7232 24 13.8099 24 9.65765C24 6.02818 21.4171 3 17.8008 3ZM19.8293 14.8279C18.2406 16.6006 15.8397 18.4672 12.5 20.525C9.16028 18.4672 6.75943 16.6006 5.17068 14.8279C3.57335 13.0456 2.79688 11.3544 2.79688 9.65765C2.79688 7.04301 4.56383 4.79687 7.19922 4.79687C8.5413 4.79687 9.68564 5.38041 10.6005 6.53131C11.332 7.45171 11.6402 8.40212 11.6424 8.40891C11.7594 8.78423 12.1069 9.03988 12.5 9.03988C12.8932 9.03988 13.2407 8.78428 13.3577 8.40891C13.3606 8.39983 13.6595 7.47907 14.367 6.57273C15.2868 5.39434 16.4421 4.79683 17.8008 4.79683C20.439 4.79683 22.2031 7.04513 22.2031 9.6576C22.2031 11.3543 21.4267 13.0456 19.8293 14.8279Z"/>
    </symbol>


    <symbol id="user" viewBox="0 0 24 24">
        <path d="M15.6243 11.201C17.032 10.1743 17.9487 8.51283 17.9487 6.64102C17.9487 3.53056 15.4181 1 12.3077 1C9.19721 1 6.66665 3.53056 6.66665 6.64102C6.66665 8.51283 7.58331 10.1743 8.99105 11.201C5.49167 12.5401 3 15.933 3 19.8974C3 21.6082 4.3918 23 6.10256 23H18.5128C20.2236 23 21.6154 21.6082 21.6154 19.8974C21.6154 15.933 19.1237 12.5401 15.6243 11.201ZM8.35898 6.64102C8.35898 4.46371 10.1304 2.69232 12.3077 2.69232C14.485 2.69232 16.2564 4.46371 16.2564 6.64102C16.2564 8.81834 14.485 10.5898 12.3077 10.5898C10.1304 10.5898 8.35898 8.81834 8.35898 6.64102ZM18.5128 21.3077H6.10256C5.32495 21.3077 4.69232 20.675 4.69232 19.8974C4.69232 15.6982 8.10851 12.282 12.3077 12.282C16.5069 12.282 19.9231 15.6982 19.9231 19.8974C19.9231 20.675 19.2904 21.3077 18.5128 21.3077Z"/>
    </symbol>

    <symbol id="basket" viewBox="0 0 24 24">
        <path fill-rule="evenodd" clip-rule="evenodd"
              d="M12.4594 1.8C10.4353 1.8 8.79439 3.44088 8.79439 5.46502V7.64398H16.1244V5.46502C16.1244 3.44088 14.4835 1.8 12.4594 1.8ZM17.9244 7.64398V5.46502C17.9244 2.44677 15.4776 0 12.4594 0C9.44116 0 6.99439 2.44677 6.99439 5.46502V7.64398H4.9C3.85066 7.64398 3 8.49464 3 9.54398V21.7399C3 22.7893 3.85066 23.6399 4.9 23.6399H20.0188C21.0682 23.6399 21.9188 22.7893 21.9188 21.7399V9.54398C21.9188 8.49464 21.0682 7.64398 20.0188 7.64398H17.9244ZM4.9 9.44398C4.84477 9.44398 4.8 9.48875 4.8 9.54398V21.7399C4.8 21.7952 4.84477 21.8399 4.9 21.8399H20.0188C20.074 21.8399 20.1188 21.7952 20.1188 21.7399V9.54398C20.1188 9.48875 20.074 9.44398 20.0188 9.44398H17.0244H7.89439H4.9ZM9.03547 11.8199C9.03547 12.4228 8.52466 12.9116 7.89455 12.9116C7.26444 12.9116 6.75363 12.4228 6.75363 11.8199C6.75363 11.217 7.26444 10.7282 7.89455 10.7282C8.52466 10.7282 9.03547 11.217 9.03547 11.8199ZM17.0244 12.9116C17.6545 12.9116 18.1654 12.4228 18.1654 11.8199C18.1654 11.217 17.6545 10.7282 17.0244 10.7282C16.3943 10.7282 15.8835 11.217 15.8835 11.8199C15.8835 12.4228 16.3943 12.9116 17.0244 12.9116Z"/>
    </symbol>


    <symbol id="search" viewBox="0 0 23 23">
        <path d="M10.1287 0C4.54389 0 0 4.54389 0 10.1287C0 15.7139 4.54389 20.2574 10.1287 20.2574C15.7139 20.2574 20.2574 15.7139 20.2574 10.1287C20.2574 4.54389 15.7139 0 10.1287 0ZM10.1287 18.3876C5.57485 18.3876 1.86992 14.6826 1.86992 10.1288C1.86992 5.57489 5.57485 1.86992 10.1287 1.86992C14.6826 1.86992 18.3875 5.57485 18.3875 10.1287C18.3875 14.6826 14.6826 18.3876 10.1287 18.3876Z"/>
        <path d="M22.726 21.4039L17.3655 16.0435C17.0003 15.6782 16.4087 15.6782 16.0435 16.0435C15.6782 16.4084 15.6782 17.0006 16.0435 17.3655L21.4039 22.726C21.5865 22.9086 21.8256 22.9999 22.065 22.9999C22.304 22.9999 22.5433 22.9086 22.726 22.726C23.0913 22.361 23.0913 21.7689 22.726 21.4039Z"/>
    </symbol>

    <symbol id="location" viewBox="0 0 21 25">
        <path d="M10.4997 0C5.0642 0 0.64209 4.42211 0.64209 9.85765C0.64209 11.861 1.23979 13.7894 2.37065 15.4346C3.41436 16.953 4.84393 18.1383 6.51902 18.8778L9.72815 24.55C9.88545 24.8281 10.1803 25 10.4997 25C10.8191 25 11.1139 24.8281 11.2712 24.55L14.4803 18.8778C16.1554 18.1383 17.585 16.953 18.6287 15.4346C19.7597 13.7895 20.3574 11.861 20.3574 9.85765C20.3574 4.42211 15.9352 0 10.4997 0ZM13.5254 17.3567C13.3395 17.4319 13.1845 17.5678 13.0859 17.7422L10.4997 22.3133L7.91363 17.7422C7.81492 17.5678 7.65996 17.4319 7.47408 17.3567C4.40083 16.1153 2.41505 13.1718 2.41505 9.85765C2.41505 5.39972 6.04181 1.77296 10.4997 1.77296C14.9577 1.77296 18.5844 5.39972 18.5844 9.85765C18.5844 13.1718 16.5987 16.1153 13.5254 17.3567Z"
              fill="#B0B1BF"/>
        <path d="M10.5001 6.08179C8.44705 6.08179 6.77686 7.75199 6.77686 9.80501C6.77686 11.858 8.44705 13.5282 10.5001 13.5282C12.5531 13.5282 14.2233 11.858 14.2233 9.80501C14.2233 7.75199 12.5531 6.08179 10.5001 6.08179ZM10.5001 11.7553C9.42466 11.7553 8.54981 10.8804 8.54981 9.80501C8.54981 8.7296 9.42466 7.85475 10.5001 7.85475C11.5755 7.85475 12.4503 8.7296 12.4503 9.80501C12.4503 10.8804 11.5755 11.7553 10.5001 11.7553Z"
              fill="#ADAEC0"/>
    </symbol>

    <symbol id="instagram" viewBox="0 0 19 20">
        <path fill-rule="evenodd" clip-rule="evenodd"
              d="M13.5815 4.55612C13.5815 5.21047 14.1132 5.74096 14.769 5.74096C15.4248 5.74096 15.9565 5.21047 15.9565 4.55612C15.9565 3.90174 15.4248 3.37125 14.769 3.37125C14.1132 3.37125 13.5815 3.90174 13.5815 4.55612ZM6.18774 9.82659C6.18774 8.00885 7.6646 6.53531 9.48634 6.53531C11.3081 6.53531 12.7849 8.00885 12.7849 9.82659C12.7849 11.6443 11.3081 13.1178 9.48634 13.1178C7.6646 13.1178 6.18774 11.6443 6.18774 9.82659ZM9.48623 14.8975C6.67975 14.8975 4.40466 12.6275 4.40466 9.82719C4.40466 7.02694 6.67975 4.7569 9.48623 4.7569C12.2927 4.7569 14.5678 7.02694 14.5678 9.82719C14.5678 12.6275 12.2927 14.8975 9.48623 14.8975ZM17.52 1.84115C17.1218 1.44294 16.7427 1.19633 16.2116 0.989915C15.8105 0.834047 15.208 0.648691 14.0985 0.598064C12.8986 0.543326 12.5386 0.531738 9.50015 0.531738C6.46165 0.531738 6.10174 0.543326 4.90176 0.598064C3.79229 0.648691 3.18975 0.834047 2.78876 0.989915C2.25757 1.19633 1.87851 1.44294 1.48031 1.84115C1.0821 2.23935 0.835487 2.61845 0.629034 3.1496C0.473207 3.55059 0.287851 4.15317 0.237224 5.26265C0.182486 6.46258 0.170898 6.82249 0.170898 9.86099C0.170898 12.8995 0.182486 13.2594 0.237224 14.4594C0.287851 15.5688 0.473207 16.1714 0.629034 16.5724C0.835487 17.1036 1.0821 17.4827 1.48031 17.8809C1.87851 18.2791 2.25757 18.5257 2.78876 18.7321C3.18975 18.8879 3.79229 19.0733 4.90181 19.1239C6.10157 19.1787 6.46144 19.1903 9.50015 19.1903C12.5388 19.1903 12.8987 19.1787 14.0985 19.1239C15.208 19.0733 15.8105 18.8879 16.2116 18.7321C16.7427 18.5257 17.1218 18.2791 17.52 17.8808C17.9182 17.4827 18.1648 17.1036 18.3713 16.5724C18.5271 16.1714 18.7125 15.5688 18.7631 14.4594C18.8178 13.2594 18.8294 12.8995 18.8294 9.86099C18.8294 6.82249 18.8178 6.46258 18.7631 5.26265C18.7125 4.15317 18.5271 3.55059 18.3713 3.1496C18.1648 2.61845 17.9182 2.23935 17.52 1.84115Z"/>
    </symbol>

    <symbol id="facebook" viewBox="0 0 12 24">
        <path d="M7.78896 23.4679V12.9276H11.3269L11.8566 8.81989H7.78896V6.19723C7.78896 5.00797 8.11925 4.19742 9.8248 4.19742L12 4.19642V0.522525C11.6236 0.472647 10.3325 0.36084 8.83037 0.36084C5.69421 0.36084 3.54712 2.27506 3.54712 5.79062V8.82H0V12.9277H3.54701V23.468L7.78896 23.4679Z"/>
    </symbol>

    <symbol id="youtube" viewBox="0 0 22 16">
        <path fill-rule="evenodd" clip-rule="evenodd"
              d="M19.6078 0.832008C20.5502 1.08571 21.2932 1.82871 21.5469 2.77104C22.018 4.49262 21.9999 8.08074 21.9999 8.08074C21.9999 8.08074 21.9999 11.6507 21.5469 13.3723C21.2932 14.3147 20.5502 15.0576 19.6078 15.3114C17.8862 15.7644 11 15.7644 11 15.7644C11 15.7644 4.13178 15.7644 2.39208 15.2932C1.44975 15.0395 0.706752 14.2965 0.453046 13.3542C0 11.6507 0 8.06262 0 8.06262C0 8.06262 0 4.49262 0.453046 2.77104C0.706752 1.82871 1.46787 1.06759 2.39208 0.813886C4.11366 0.36084 11 0.36084 11 0.36084C11 0.36084 17.8862 0.36084 19.6078 0.832008ZM14.5338 8.06261L8.80725 11.3608V4.76444L14.5338 8.06261Z"/>
    </symbol>

    <symbol id="vk" viewBox="0 0 24 14">
        <path fill-rule="evenodd" clip-rule="evenodd"
              d="M11.7425 13.3062H13.1772C13.1772 13.3062 13.6102 13.2611 13.8314 13.035C14.0357 12.8266 14.0289 12.4364 14.0289 12.4364C14.0289 12.4364 14.0009 10.6091 14.8941 10.3395C15.7746 10.074 16.9059 12.1057 18.1041 12.887C19.0109 13.4784 19.6998 13.3488 19.6998 13.3488L22.9048 13.3062C22.9048 13.3062 24.581 13.208 23.7861 11.9568C23.7208 11.8546 23.3225 11.0307 21.4031 9.3386C19.393 7.56763 19.6625 7.85408 22.0836 4.79009C23.5573 2.92498 24.1471 1.78564 23.9623 1.29804C23.7869 0.832972 22.7031 0.956078 22.7031 0.956078L19.0939 0.976999C19.0939 0.976999 18.8261 0.9424 18.6278 1.05505C18.4346 1.16528 18.31 1.42276 18.31 1.42276C18.31 1.42276 17.738 2.86624 16.9771 4.09409C15.3703 6.68496 14.7271 6.82175 14.4644 6.66083C13.8535 6.28587 14.006 5.15538 14.006 4.35157C14.006 1.84035 14.4077 0.793546 13.2255 0.522389C12.8332 0.433076 12.5442 0.373535 11.5408 0.363879C10.2536 0.351005 9.16383 0.367098 8.54691 0.654346C8.13591 0.845041 7.81897 1.27068 8.01219 1.29482C8.25031 1.3254 8.79097 1.43322 9.07739 1.80334C9.44687 2.28129 9.43416 3.35384 9.43416 3.35384C9.43416 3.35384 9.64686 6.30921 8.93757 6.67692C8.45115 6.92796 7.78423 6.41461 6.35124 4.06352C5.61738 2.85981 5.06316 1.52897 5.06316 1.52897C5.06316 1.52897 4.95639 1.28034 4.76572 1.14677C4.53437 0.985849 4.2115 0.934354 4.2115 0.934354L0.781993 0.956078C0.781993 0.956078 0.267609 0.969757 0.0786339 1.18218C-0.0900028 1.37126 0.0650752 1.76231 0.0650752 1.76231C0.0650752 1.76231 2.7497 7.72614 5.7894 10.7314C8.57742 13.4872 11.7425 13.3062 11.7425 13.3062Z"/>
    </symbol>

    <symbol id="ok" viewBox="0 0 21 22">
        <g>
            <path d="M4.13085 11.6317C3.59448 12.686 4.20348 13.19 5.59298 14.051C6.77423 14.7808 8.40611 15.0477 9.45436 15.1544C9.02473 15.5674 10.9935 13.6739 5.32348 19.1278C4.12123 20.2802 6.05673 22.1291 7.25811 21.0012L10.5105 17.8643C11.7556 19.0622 12.9491 20.2102 13.7629 21.0056C14.9651 22.1378 16.8997 20.3047 15.7106 19.1322C15.6214 19.0473 11.3032 14.905 11.5666 15.1588C12.628 15.052 14.2354 14.7694 15.4026 14.0554L15.4017 14.0545C16.7912 13.1892 17.4002 12.686 16.8717 11.6317C16.5524 11.0332 15.6914 10.5327 14.5451 11.398C14.5451 11.398 12.9972 12.5837 10.5009 12.5837C8.00361 12.5837 6.4566 11.398 6.4566 11.398C5.31123 10.5283 4.44673 11.0332 4.13085 11.6317Z"/>
            <path d="M10.4993 10.9851C13.5426 10.9851 16.0276 8.60684 16.0276 5.67909C16.0276 2.73909 13.5426 0.36084 10.4993 0.36084C7.45521 0.36084 4.97021 2.73909 4.97021 5.67909C4.97021 8.60684 7.45521 10.9851 10.4993 10.9851ZM10.4993 3.05497C11.9947 3.05497 13.2145 4.22834 13.2145 5.67909C13.2145 7.11759 11.9947 8.29097 10.4993 8.29097C9.00396 8.29097 7.78422 7.11759 7.78422 5.67909C7.78334 4.22747 9.00309 3.05497 10.4993 3.05497Z"/>
        </g>
    </symbol>

    <symbol id="arrow-right" viewBox="0 0 10 18">
        <path d="M9.69205 8.35754L1.59753 0.265714C1.24235 -0.0885711 0.666899 -0.0885712 0.31082 0.265714C-0.044362 0.619999 -0.0443621 1.19545 0.31082 1.54974L7.76329 8.99952L0.311714 16.4493C-0.0434678 16.8036 -0.0434679 17.379 0.311714 17.7342C0.666896 18.0885 1.24324 18.0885 1.59843 17.7342L9.69295 9.64239C10.0427 9.29176 10.0427 8.70727 9.69205 8.35754Z"/>
    </symbol>

    <symbol id="arrow-left" viewBox="0 0 10 18">
        <path d="M0.307949 9.64246L8.40247 17.7343C8.75765 18.0886 9.3331 18.0886 9.68918 17.7343C10.0444 17.38 10.0444 16.8045 9.68918 16.4503L2.23671 9.00049L9.68828 1.55071C10.0435 1.19642 10.0435 0.62097 9.68828 0.265787C9.3331 -0.0884971 8.75675 -0.0884971 8.40157 0.265787L0.307052 8.35762C-0.0427493 8.70824 -0.0427483 9.29273 0.307949 9.64246Z"/>
    </symbol>

    <symbol id="arrow-bottom" viewBox="0 0 24 24">
        <path d="M16.7062 9.27529C16.3162 8.90824 15.6862 8.90824 15.2962 9.27529L11.4162 12.9271L7.53624 9.27529C7.14624 8.90823 6.51624 8.90823 6.12624 9.27529C5.73624 9.64235 5.73624 10.2353 6.12624 10.6024L10.7162 14.9224C11.1062 15.2894 11.7362 15.2894 12.1262 14.9224L16.7162 10.6024C17.0962 10.2447 17.0962 9.64235 16.7062 9.27529Z"/>
    </symbol>


    <symbol id="play" viewBox="0 0 11 13">
        <path d="M10.5 5.63397C11.1667 6.01888 11.1667 6.98113 10.5 7.36603L2.25 12.1292C1.58333 12.5141 0.749999 12.0329 0.749999 11.2631L0.75 1.73686C0.75 0.967058 1.58333 0.485934 2.25 0.870834L10.5 5.63397Z"/>
    </symbol>

    <symbol id="close" viewBox="0 0 8 8">
        <path d="M7.76605 0.233946C7.45403 -0.077982 6.94824 -0.077982 6.63622 0.233946L4.005 2.86516L1.37379 0.233946C1.06026 -0.0688653 0.561903 -0.0645348 0.253689 0.243679C-0.0545252 0.551893 -0.0588562 1.05026 0.243955 1.36378L2.87517 3.995L0.243955 6.62621C0.0362413 6.82683 -0.0470627 7.12391 0.0260611 7.40328C0.099185 7.68264 0.317357 7.90082 0.596723 7.97394C0.876088 8.04706 1.17317 7.96376 1.37379 7.75604L4.005 5.12483L6.63622 7.75604C6.94974 8.05886 7.44811 8.05453 7.75632 7.74631C8.06454 7.4381 8.06887 6.93974 7.76605 6.62621L5.13484 3.995L7.76605 1.36378C8.07798 1.05176 8.07798 0.545968 7.76605 0.233946Z"/>
    </symbol>

    <symbol id="close-modal" viewBox="0 0 24 24">
        <rect x="4.41406" y="3" width="24" height="2" rx="1" transform="rotate(45 4.41406 3)"/>
        <rect x="3.41406" y="19.9688" width="24" height="2" rx="1" transform="rotate(-45 3.41406 19.9688)"/>
    </symbol>

    <symbol id="next" viewBox="0 0 21 16">
        <path d="M0.292892 7.29289C-0.0976315 7.68342 -0.0976315 8.31658 0.292892 8.70711L6.65685 15.0711C7.04738 15.4616 7.68054 15.4616 8.07107 15.0711C8.46159 14.6805 8.46159 14.0474 8.07107 13.6569L2.41421 8L8.07107 2.34315C8.46159 1.95262 8.46159 1.31946 8.07107 0.928932C7.68054 0.538408 7.04738 0.538408 6.65685 0.928932L0.292892 7.29289ZM21 7L1 7V9L21 9V7Z"/>
    </symbol>

    <symbol id="attention" viewBox="0 0 5 15">
        <path d="M0.188718 2.23801C0.0976011 1.03021 1.05302 0 2.26425 0C3.47717 0 4.43316 1.03293 4.33947 2.24222L3.87352 8.2561C3.80814 9.09986 3.10441 9.75117 2.25812 9.75117C1.41057 9.75117 0.706235 9.09797 0.642477 8.25282L0.188718 2.23801ZM2.26654 15C1.60381 15 1.06037 14.8012 0.636221 14.4035C0.212074 13.9927 0 13.4956 0 12.9124C0 12.3159 0.212074 11.8255 0.636221 11.4411C1.06037 11.0568 1.60381 10.8646 2.26654 10.8646C2.92927 10.8646 3.46608 11.0568 3.87697 11.4411C4.30112 11.8255 4.51319 12.3159 4.51319 12.9124C4.51319 13.4956 4.30112 13.9927 3.87697 14.4035C3.45282 14.8012 2.91601 15 2.26654 15Z"/>
    </symbol>

    <symbol id="delete" viewBox="0 0 24 24">
        <path fill-rule="evenodd" clip-rule="evenodd"
              d="M16 16C16 16.55 15.55 17 15 17C14.45 17 14 16.55 14 16V12C14 11.45 14.45 11 15 11C15.55 11 16 11.45 16 12V16ZM10 4.328C10 4.173 10.214 4 10.5 4H13.5C13.786 4 14 4.173 14 4.328V6H10V4.328ZM10 16C10 16.55 9.55 17 9 17C8.45 17 8 16.55 8 16V12C8 11.45 8.45 11 9 11C9.55 11 10 11.45 10 12V16ZM21 6H20H16V4.328C16 3.044 14.879 2 13.5 2H10.5C9.121 2 8 3.044 8 4.328V6H4H3C2.45 6 2 6.45 2 7C2 7.55 2.45 8 3 8H4V19C4 20.654 5.346 22 7 22H17C18.654 22 20 20.654 20 19V8H21C21.55 8 22 7.55 22 7C22 6.45 21.55 6 21 6Z"/>
    </symbol>

    <symbol id="plus" viewBox="0 0 15 14">
        <path d="M15 7.99057H8.58621V14H6.41379V7.99057H0V6.04245H6.41379V0H8.58621V6.04245H15V7.99057Z"/>
    </symbol>

    <symbol id="minus" viewBox="0 0 9 2">
        <path d="M0 0H9V2H0V0Z"/>
    </symbol>

    <symbol id="check" viewBox="0 0 26 26">
        <path d="M18.6773 7.73246C19.2373 7.17251 20.1451 7.17251 20.705 7.73246C21.265 8.2924 21.265 9.20025 20.705 9.76019L12.1021 18.3631C11.5422 18.9231 10.6343 18.9231 10.0744 18.3631L5.29496 13.5837C4.73501 13.0238 4.73501 12.1159 5.29496 11.556C5.8549 10.996 6.76275 10.996 7.32269 11.556L11.0882 15.3215L18.6773 7.73246Z"/>
    </symbol>

    <symbol id="check2" viewBox="0 0 20 20">
        <path fill-rule="evenodd" clip-rule="evenodd"
              d="M7.86345 16C7.58744 16 7.32344 15.886 7.13444 15.685L2.27138 10.5059C1.89238 10.1039 1.91338 9.47093 2.31539 9.09292C2.71839 8.71492 3.3514 8.73492 3.7284 9.13692L7.85345 13.528L16.2615 4.32587C16.6355 3.91687 17.2675 3.88987 17.6756 4.26187C18.0826 4.63388 18.1106 5.26688 17.7386 5.67389L8.60145 15.674C8.41445 15.88 8.14845 15.998 7.87045 16H7.86345Z"/>
    </symbol>


    <symbol id="mail-icon" viewBox="0 0 20 20">
        <path d="M13.0079 10C13.0079 11.6586 11.6586 13.0079 10 13.0079C8.34143 13.0079 6.99214 11.6586 6.99214 10C6.99214 8.34143 8.34143 6.99214 10 6.99214C11.6586 6.99214 13.0079 8.34143 13.0079 10ZM10 0C4.48571 0 0 4.48571 0 10C0 15.5143 4.48571 20 10 20C12.02 20 13.9679 19.3986 15.6329 18.2607L15.6614 18.2407L14.3143 16.675L14.2914 16.6893C13.01 17.5143 11.5257 17.95 10 17.95C5.61643 17.95 2.05 14.3836 2.05 10C2.05 5.61643 5.61643 2.05 10 2.05C14.3836 2.05 17.95 5.61643 17.95 10C17.95 10.5679 17.8864 11.1429 17.7629 11.7086C17.5114 12.7407 16.7886 13.0564 16.2464 13.015C15.7007 12.9707 15.0621 12.5821 15.0579 11.6307V10.9057V10C15.0579 7.21071 12.7893 4.94214 10 4.94214C7.21071 4.94214 4.94214 7.21071 4.94214 10C4.94214 12.7893 7.21071 15.0579 10 15.0579C11.355 15.0579 12.6257 14.5286 13.5836 13.565C14.1407 14.4321 15.0486 14.9757 16.0821 15.0586C16.1707 15.0657 16.2614 15.0693 16.3507 15.0693C17.0786 15.0693 17.7993 14.8257 18.3807 14.385C18.98 13.9293 19.4279 13.2714 19.675 12.4807C19.7143 12.3529 19.7871 12.0607 19.7871 12.0586L19.7893 12.0479C19.935 11.4136 20 10.7814 20 10C20 4.48571 15.5143 0 10 0Z"/>
    </symbol>

    <symbol id="google" viewBox="0 0 20 20">
        <path d="M4.43242 12.0875L3.73625 14.6864L1.19176 14.7402C0.431328 13.3298 0 11.7161 0 10.0013C0 8.34301 0.403281 6.77926 1.11812 5.40234H1.11867L3.38398 5.81766L4.37633 8.06938C4.16863 8.67488 4.05543 9.32488 4.05543 10.0013C4.05551 10.7353 4.18848 11.4386 4.43242 12.0875Z"
              fill="#FBBB00"/>
        <path d="M19.8252 8.13281C19.94 8.73773 19.9999 9.36246 19.9999 10.0009C19.9999 10.7169 19.9246 11.4152 19.7812 12.0889C19.2944 14.3812 18.0224 16.3828 16.2604 17.7993L16.2598 17.7987L13.4065 17.6532L13.0027 15.1323C14.1719 14.4466 15.0857 13.3735 15.567 12.0889H10.2197V8.13281H15.645H19.8252Z"
              fill="#518EF8"/>
        <path d="M16.2595 17.7975L16.2601 17.798C14.5464 19.1755 12.3694 19.9996 9.99965 19.9996C6.19141 19.9996 2.88043 17.8711 1.19141 14.7387L4.43207 12.0859C5.27656 14.3398 7.45074 15.9442 9.99965 15.9442C11.0952 15.9442 12.1216 15.648 13.0024 15.131L16.2595 17.7975Z"
              fill="#28B446"/>
        <path d="M16.383 2.30219L13.1434 4.95437C12.2319 4.38461 11.1544 4.05547 10 4.05547C7.39344 4.05547 5.17859 5.73348 4.37641 8.06812L1.11871 5.40109H1.11816C2.78246 2.1923 6.1352 0 10 0C12.4264 0 14.6511 0.864297 16.383 2.30219Z"
              fill="#F14336"/>
    </symbol>

    <symbol id="view-off" viewBox="0 0 24 24">
        <path fill-rule="evenodd" clip-rule="evenodd"
              d="M12 10.5C11.173 10.5 10.5 11.173 10.5 12C10.5 12.827 11.173 13.5 12 13.5C12.827 13.5 13.5 12.827 13.5 12C13.5 11.173 12.827 10.5 12 10.5Z"/>
        <path fill-rule="evenodd" clip-rule="evenodd"
              d="M15.293 18.121L13.948 16.777L13.879 16.707L12.61 15.438C12.411 15.474 12.209 15.5 12 15.5C10.07 15.5 8.5 13.93 8.5 12C8.5 11.791 8.526 11.589 8.562 11.39L6.576 9.40505L5.045 7.87305C3.523 9.26105 2.547 10.78 2.132 11.502C1.956 11.81 1.956 12.189 2.132 12.497C2.762 13.595 6.162 19 12.025 19C12.106 19 12.189 18.999 12.271 18.996C13.455 18.966 14.526 18.711 15.498 18.326L15.293 18.121Z"/>
        <path fill-rule="evenodd" clip-rule="evenodd"
              d="M8.59283 5.76462L11.3898 8.56162C11.5888 8.52662 11.7908 8.50062 11.9998 8.50062C13.9298 8.50062 15.4998 10.0706 15.4998 12.0006C15.4998 12.2096 15.4738 12.4116 15.4388 12.6106L18.1208 15.2936L18.9548 16.1276C20.4768 14.7396 21.4528 13.2206 21.8678 12.4976C22.0438 12.1896 22.0438 11.8106 21.8678 11.5026C21.2298 10.3906 17.7058 4.81662 11.7298 5.00362C10.5458 5.03462 9.47383 5.28962 8.50183 5.67462L8.59283 5.76462Z"/>
        <path fill-rule="evenodd" clip-rule="evenodd"
              d="M20.707 19.2932L19.407 17.9932L17.414 16.0002L7.88501 6.47125L6.42001 5.00625L4.70701 3.29325C4.31601 2.90225 3.68401 2.90225 3.29301 3.29325C2.90201 3.68425 2.90201 4.31625 3.29301 4.70725L5.53201 6.94625L7.28301 8.69725L14.586 16.0002L14.655 16.0693L16 17.4143L16.586 18.0002L19.293 20.7073C19.488 20.9023 19.744 21.0002 20 21.0002C20.256 21.0002 20.512 20.9023 20.707 20.7073C21.098 20.3162 21.098 19.6842 20.707 19.2932Z"/>
    </symbol>

    <symbol id="arrow-prev" viewBox="0 0 21 16">
        <path d="M0.292892 7.29289C-0.0976315 7.68342 -0.0976315 8.31658 0.292892 8.70711L6.65685 15.0711C7.04738 15.4616 7.68054 15.4616 8.07107 15.0711C8.46159 14.6805 8.46159 14.0474 8.07107 13.6569L2.41421 8L8.07107 2.34315C8.46159 1.95262 8.46159 1.31946 8.07107 0.928932C7.68054 0.538408 7.04738 0.538408 6.65685 0.928932L0.292892 7.29289ZM21 7L1 7V9L21 9V7Z"/>
    </symbol>

    <symbol id="geo" viewBox="0 0 20 26">
        <path fill-rule="evenodd" clip-rule="evenodd"
              d="M0 10C0 4.48597 4.48597 0 10 0C15.514 0 20 4.48597 20 10C20 12.0322 19.3937 13.9886 18.2463 15.6575C17.6952 16.4593 17.038 17.1696 16.2948 17.7721C14.9572 18.8566 13.5801 19.9599 12.7321 21.4586L10.7826 24.9045C10.623 25.1866 10.324 25.361 9.99993 25.361C9.6759 25.361 9.37683 25.1866 9.21727 24.9045L7.26772 21.4586C6.4198 19.9599 5.04266 18.8566 3.70507 17.7721C2.96188 17.1696 2.30467 16.4593 1.75353 15.6575C0.606331 13.9886 0 12.0322 0 10ZM10.0001 12.857C11.9725 12.857 13.5715 11.258 13.5715 9.28554C13.5715 7.31309 11.9725 5.71411 10.0001 5.71411C8.02761 5.71411 6.42863 7.31309 6.42863 9.28554C6.42863 11.258 8.02761 12.857 10.0001 12.857Z"/>
    </symbol>


</svg>