<svg width="50" height="51" viewBox="0 0 50 51" fill="none" xmlns="http://www.w3.org/2000/svg">
    <g clip-path="url(#clip0)">
        <path d="M49.7534 25.5382L43.9534 18.917C43.7643 18.7012 43.4912 18.5772 43.2042 18.5772H38.3746V14.4882C38.3746 13.9381 37.9286 13.4922 37.3786 13.4922H16.8076C16.2576 13.4922 15.8116 13.9381 15.8116 14.4882V15.8321H6.23233C5.68232 15.8321 5.23633 16.278 5.23633 16.8281C5.23633 17.3782 5.68232 17.8241 6.23233 17.8241H15.8116V30.7353H10.0454C9.49541 30.7353 9.04942 31.1812 9.04942 31.7313C9.04942 32.2813 9.49541 32.7272 10.0454 32.7272H15.8116V33.7395C15.8116 34.2896 16.2576 34.7355 16.8076 34.7355H18.8865C19.3245 36.3311 20.7868 37.5071 22.5196 37.5071C24.2525 37.5071 25.7148 36.3311 26.1528 34.7355H39.4428V34.7354C39.8808 36.331 41.3431 37.507 43.0759 37.507C44.8087 37.507 46.271 36.331 46.7091 34.7354H49.0042C49.5542 34.7354 50.0002 34.2895 50.0002 33.7394V26.1943C50.0001 25.953 49.9123 25.7197 49.7534 25.5382ZM22.5196 35.5151C21.5405 35.5151 20.7441 34.7186 20.7441 33.7395C20.7441 32.7604 21.5405 31.9638 22.5196 31.9638C23.4987 31.9638 24.2953 32.7604 24.2953 33.7395C24.2953 34.7186 23.4987 35.5151 22.5196 35.5151ZM26.1527 32.7435C25.7147 31.1479 24.2523 29.9718 22.5194 29.9718C20.7866 29.9718 19.3244 31.1479 18.8863 32.7435H17.8034V15.4841H36.3823V32.7435H26.1527ZM43.0757 35.5151C42.0966 35.5151 41.3001 34.7186 41.3001 33.7395C41.3001 32.7604 42.0966 31.9638 43.0757 31.9638C44.0548 31.9638 44.8514 32.7604 44.8514 33.7395C44.8514 34.7186 44.0549 35.5151 43.0757 35.5151ZM48.0081 32.7435H46.7089C46.2709 31.1479 44.8085 29.9718 43.0757 29.9718C41.3429 29.9718 39.8807 31.1479 39.4426 32.7435H38.3743V20.5692H42.7524L48.008 26.5689V32.7435H48.0081Z" fill="#252634"/>
        <path d="M6.76377 30.7354H6.23233C5.68232 30.7354 5.23633 31.1812 5.23633 31.7313C5.23633 32.2814 5.68232 32.7273 6.23233 32.7273H6.76377C7.31377 32.7273 7.75977 32.2814 7.75977 31.7313C7.75977 31.1812 7.31387 30.7354 6.76377 30.7354Z" fill="#252634"/>
        <path d="M11.6699 23.1826H0.995996C0.445996 23.1826 0 23.6285 0 24.1786C0 24.7287 0.445996 25.1746 0.995996 25.1746H11.6699C12.2199 25.1746 12.6659 24.7287 12.6659 24.1786C12.6659 23.6285 12.2199 23.1826 11.6699 23.1826Z" fill="#252634"/>
    </g>
    <defs>
        <clipPath id="clip0">
            <rect width="50" height="50" fill="white" transform="translate(0 0.5)"/>
        </clipPath>
    </defs>
</svg>
