<svg width="24" height="24" viewBox="0 0 24 24" fill="none" xmlns="http://www.w3.org/2000/svg">
    <path fill-rule="evenodd" clip-rule="evenodd" d="M12 10.5C11.173 10.5 10.5 11.173 10.5 12C10.5 12.827 11.173 13.5 12 13.5C12.827 13.5 13.5 12.827 13.5 12C13.5 11.173 12.827 10.5 12 10.5Z" fill="#B0B1BF"/>
    <path fill-rule="evenodd" clip-rule="evenodd" d="M15.293 18.121L13.948 16.777L13.879 16.707L12.61 15.438C12.411 15.474 12.209 15.5 12 15.5C10.07 15.5 8.5 13.93 8.5 12C8.5 11.791 8.526 11.589 8.562 11.39L6.576 9.40505L5.045 7.87305C3.523 9.26105 2.547 10.78 2.132 11.502C1.956 11.81 1.956 12.189 2.132 12.497C2.762 13.595 6.162 19 12.025 19C12.106 19 12.189 18.999 12.271 18.996C13.455 18.966 14.526 18.711 15.498 18.326L15.293 18.121Z" fill="#B0B1BF"/>
    <path fill-rule="evenodd" clip-rule="evenodd" d="M8.59283 5.76462L11.3898 8.56162C11.5888 8.52662 11.7908 8.50062 11.9998 8.50062C13.9298 8.50062 15.4998 10.0706 15.4998 12.0006C15.4998 12.2096 15.4738 12.4116 15.4388 12.6106L18.1208 15.2936L18.9548 16.1276C20.4768 14.7396 21.4528 13.2206 21.8678 12.4976C22.0438 12.1896 22.0438 11.8106 21.8678 11.5026C21.2298 10.3906 17.7058 4.81662 11.7298 5.00362C10.5458 5.03462 9.47383 5.28962 8.50183 5.67462L8.59283 5.76462Z" fill="#B0B1BF"/>
    <path fill-rule="evenodd" clip-rule="evenodd" d="M20.707 19.2932L19.407 17.9932L17.414 16.0002L7.88501 6.47125L6.42001 5.00625L4.70701 3.29325C4.31601 2.90225 3.68401 2.90225 3.29301 3.29325C2.90201 3.68425 2.90201 4.31625 3.29301 4.70725L5.53201 6.94625L7.28301 8.69725L14.586 16.0002L14.655 16.0693L16 17.4143L16.586 18.0002L19.293 20.7073C19.488 20.9023 19.744 21.0002 20 21.0002C20.256 21.0002 20.512 20.9023 20.707 20.7073C21.098 20.3162 21.098 19.6842 20.707 19.2932Z" fill="#B0B1BF"/>
</svg>
